<?xml version="1.0" encoding="UTF-8" standalone="no"?>
<svg xmlns="http://www.w3.org/2000/svg" version="1.1" width="512" height="512" viewBox="0 0 25.68222259473684 25.68222259473684" xml:space="preserve" style="fill-rule:evenodd">
	<g transform="translate(-148.9,-95.7)" style="stroke:none">
		<g transform="matrix(0.16520712,0,0,0.16520712,123.80536,77.274922)" style="stroke:none">
			<g style="stroke:none">
				<path d="m 229.435,111.756 c 42.7397,0 77.4,34.6604 77.4,77.4 0,42.7396 -34.6603,77.4 -77.4,77.4 -42.7397,0 -77.4,-34.6604 -77.4,-77.4 0,-42.7396 34.6603,-77.4 77.4,-77.4 z m 10.3473,77.4003 c -2e-4,5.6822 -4.6654,10.347 -10.3475,10.347 -5.6821,0 -10.3471,-4.6656 -10.3471,-10.3476 0,-5.682 4.6657,-10.3472 10.3475,-10.3472 5.6821,0 10.3473,4.6658 10.3471,10.3478 z" style="fill:#58585a;fill-opacity:1;fill-rule:evenodd;stroke:none" />
				<path d="m 229.435,114.306 c 41.3315,0 74.8498,33.5184 74.8498,74.85 0,41.3316 -33.5183,74.85 -74.8498,74.85 -41.3315,0 -74.8498,-33.5184 -74.8498,-74.85 0,-41.3316 33.5183,-74.85 74.8498,-74.85 z m -7.2138,74.8497 c 0,3.9558 3.2576,7.2139 7.2135,7.2141 3.9559,0 7.2139,-3.2575 7.2141,-7.2135 2e-4,-3.9559 -3.2577,-7.2141 -7.2136,-7.2143 -3.9557,0 -7.214,3.2579 -7.214,7.2137 z" style="fill:#08224e;fill-opacity:1;stroke:none" />
				<path d="m 33.6064,5.1264 21.9582,-21.8494 c -12.7288,-16.7827 -32.8815,-27.627 -55.5646,-27.627 -38.4877,0 -69.7,31.2124 -69.7,69.7 0,38.4878 31.2123,69.7 69.7,69.7 38.4877,0 69.7,-31.2122 69.7,-69.7 0,-7.0331 -1.0435,-13.823 -2.9829,-20.2236 l -33.1107,0 z M 229.435,119.456 c 38.4877,0 69.7,31.2124 69.7,69.7 0,38.4878 -31.2123,69.7 -69.7,69.7 -38.4877,0 -69.7,-31.2122 -69.7,-69.7 0,-38.4876 31.2123,-69.7 69.7,-69.7 z m 0,44.35 c 13.9981,0 25.35,11.352 25.35,25.35 0,13.9981 -11.3519,25.35 -25.35,25.35 -13.9981,0 -25.35,-11.3519 -25.35,-25.35 0,-13.998 11.3519,-25.35 25.35,-25.35 z" style="fill:#bcbdc0;fill-opacity:1;stroke:none" />
			</g>
			<g>
				<path d="m 229.435,124.606 c 35.644,0 64.55,28.906 64.55,64.55 0,4.4452 -0.4501,8.7855 -1.3062,12.9781 -10.3607,-2.1134 -21.6293,-3.9876 -33.6486,-5.5859 0.5897,-2.3672 0.9048,-4.8428 0.9048,-7.3922 0,-16.8414 -13.6586,-30.5 -30.5,-30.5 -16.8414,0 -30.5,13.6586 -30.5,30.5 0,0.7118 0.0266,1.4171 0.0746,2.1167 -11.0731,-0.529 -22.4691,-0.8489 -34.1096,-0.9419 -0.007,-0.3912 -0.015,-0.782 -0.015,-1.1748 0,-35.644 28.906,-64.55 64.55,-64.55 z" style="fill:#08224e;fill-opacity:1;fill-rule:nonzero;stroke:none" />
				<path d="m 292.679,202.134 c -6.0089,29.426 -32.045,51.5719 -63.2438,51.5719 -35.2512,0 -63.9075,-28.2736 -64.535,-63.3752 11.6405,0.093 23.0364,0.4135 34.1096,0.9425 1.088,15.8539 14.2959,28.3827 30.4254,28.3827 14.2919,0 26.2901,-9.8369 29.5956,-23.1074 12.0194,1.5984 23.2874,3.4721 33.6482,5.5855 z" style="fill:#063375;fill-opacity:1;fill-rule:nonzero;stroke:none" />
				<path d="m 68.234,131.514 c 0,-0.3175 -0.3175,-0.5398 -0.6985,-0.5398 -0.4128,0 -0.7303,0.2223 -0.7303,0.5398 0,0.2857 0.3175,0.508 0.7303,0.508 0.381,0 0.6985,-0.2223 0.6985,-0.508 z m -5.1753,5.3022 c 0.254,-0.635 -0.6667,-1.4605 -1.016,-0.889 -0.2857,0.4445 0.0318,1.397 0.508,1.397 0.1588,0 0.4128,-0.2222 0.508,-0.508 z M 49.311,142.055 c -0.127,-0.254 -0.3493,-0.508 -0.508,-0.508 -0.4763,0 -0.762,0.6985 -0.5398,1.3017 0.1905,0.4445 0.3175,0.4763 0.7303,0.127 0.2857,-0.2222 0.4127,-0.635 0.3175,-0.9207 z m -0.127,10.0965 c 0,-0.4128 -0.1588,-0.6985 -0.3493,-0.6985 -0.4445,0 -0.7937,0.635 -0.5397,1.0477 0.381,0.6033 0.889,0.381 0.889,-0.3492 z m 18.288,3.6195 c 0.0952,-0.9843 -0.0318,-1.1748 -0.635,-1.1748 -0.6033,0 -0.7303,0.2223 -0.7303,1.27 0,1.016 0.127,1.2383 0.635,1.143 0.4128,-0.0635 0.635,-0.508 0.7303,-1.2382 z m -24.638,6.9215 c 0,-0.7303 -0.254,-0.8255 -1.0478,-0.3493 -0.4127,0.2858 -0.4127,0.4128 -0.0317,0.889 0.5397,0.6668 1.0795,0.4128 1.0795,-0.5397 z m 15.0177,4.2227 c 0.3493,-0.5715 -0.4762,-1.2382 -0.9525,-0.762 -0.4127,0.4128 -0.1587,1.1748 0.381,1.1748 0.1905,0 0.4445,-0.1905 0.5715,-0.4128 z m -4.7942,4.2863 c 0,-0.4128 -0.2223,-0.7303 -0.508,-0.7303 -0.635,0 -1.016,0.6033 -0.7303,1.0795 0.381,0.6033 1.2383,0.381 1.2383,-0.3492 z m -26.4478,0.3492 c 0,-0.381 -0.2222,-0.6985 -0.508,-0.6985 -0.635,0 -1.016,0.5715 -0.7302,1.0478 0.381,0.6032 1.2382,0.381 1.2382,-0.3493 z m 2.6035,1.2065 c 0.2858,-0.762 -1.3335,-1.4605 -2.0637,-0.889 -0.2858,0.254 -0.4128,0.6668 -0.3175,0.9525 0.254,0.6668 2.0955,0.635 2.3812,-0.0635 z m -3.0162,8.5408 c 0.0635,-0.381 -0.127,-0.5715 -0.635,-0.5715 -0.381,0 -0.7303,0.1905 -0.7303,0.4762 0,1.0795 1.143,1.1748 1.3653,0.0953 z m 10.5727,3.5242 c 0.0635,-0.3492 -0.0952,-0.5715 -0.4445,-0.5715 -0.3175,0 -0.5397,0.2858 -0.5397,0.7303 0,0.8572 0.8255,0.7302 0.9842,-0.1588 z m 8.4138,5.2705 c -0.127,-0.3175 -0.381,-0.5715 -0.5715,-0.5715 -0.4128,0 -0.508,1.1748 -0.127,1.5558 0.381,0.381 0.9207,-0.381 0.6985,-0.9843 z m 46.609,-57.6262 c -0.0635,-0.3175 -0.3493,-0.6033 -0.635,-0.6033 -0.2858,0 -0.5715,0.2858 -0.635,0.6033 -0.0953,0.4445 0.0952,0.635 0.635,0.635 0.5397,0 0.7302,-0.1905 0.635,-0.635 z m 0,7.4295 c -0.0635,-0.3493 -0.3493,-0.635 -0.635,-0.635 -0.2858,0 -0.5715,0.2857 -0.635,0.635 -0.0953,0.4127 0.0952,0.6032 0.635,0.6032 0.5397,0 0.7302,-0.1905 0.635,-0.6032 z m 31.115,1.3017 c 0,-0.381 -0.2223,-0.6985 -0.5398,-0.6985 -0.2857,0 -0.508,0.3175 -0.508,0.6985 0,0.4128 0.2223,0.6985 0.508,0.6985 0.3175,0 0.5398,-0.2857 0.5398,-0.6985 z m -9.8743,0 c 0,-0.381 -0.2222,-0.6985 -0.508,-0.6985 -0.635,0 -1.016,0.5715 -0.7302,1.0478 0.381,0.635 1.2382,0.381 1.2382,-0.3493 z m -24.8602,1.4288 c 0.254,-0.4445 -0.6985,-0.8573 -1.2383,-0.5398 -0.1905,0.127 -0.2857,0.381 -0.1587,0.5398 0.254,0.4445 1.1112,0.4445 1.397,0 z m -10.1283,-0.2858 c -0.0635,-0.3175 -0.3492,-0.6032 -0.635,-0.6032 -0.2857,0 -0.5715,0.2857 -0.635,0.6032 -0.0952,0.4445 0.0953,0.635 0.635,0.635 0.5398,0 0.7303,-0.1905 0.635,-0.635 z m 23.5903,0.4445 c 0.254,-0.6985 -0.0635,-1.016 -0.762,-0.762 -0.2858,0.127 -0.4445,0.4445 -0.3175,0.762 0.254,0.6985 0.7937,0.6985 1.0795,0 z m -1.3018,0.889 c 0,-0.381 -0.1587,-0.6985 -0.3175,-0.6985 -0.4762,0 -0.8255,0.635 -0.5715,1.0478 0.381,0.6032 0.889,0.381 0.889,-0.3493 z m -17.6847,0.7303 c 0.127,-0.889 -0.4763,-1.4923 -1.2383,-1.1748 -0.6032,0.2223 -0.635,1.2065 -0.0635,1.778 0.6033,0.6033 1.143,0.3493 1.3018,-0.6032 z m 27.8447,1.8415 c -0.0635,-0.3493 -0.3492,-0.635 -0.635,-0.635 -0.2857,0 -0.5715,0.2857 -0.635,0.635 -0.0952,0.4127 0.0953,0.6032 0.635,0.6032 0.5398,0 0.7303,-0.1905 0.635,-0.6032 z m -35.2107,5.3657 c 0.5397,-0.635 0.2222,-1.5875 -0.508,-1.5875 -0.6985,0 -0.9843,0.5715 -0.7303,1.4288 0.2858,0.8255 0.635,0.889 1.2383,0.1587 z m 36.449,9.2075 c 0.2222,-0.5715 -0.0318,-0.9207 -0.6985,-0.9207 -0.254,0 -0.4763,0.3175 -0.4763,0.6985 0,0.8255 0.889,0.9842 1.1748,0.2222 z m 31.2737,18.9865 c 0,-0.2857 -0.2857,-0.508 -0.6985,-0.508 -0.762,0 -0.9525,0.9208 -0.254,1.1748 0.6033,0.1905 0.9525,-0.0318 0.9525,-0.6668 z m 3.3973,3.7148 c 0.3492,-0.6033 -0.4763,-1.27 -0.9525,-0.7938 -0.4128,0.4128 -0.1588,1.1748 0.381,1.1748 0.1905,0 0.4445,-0.1905 0.5715,-0.381 z m -30.9563,0.0952 c -0.0635,-0.3175 -0.3492,-0.6032 -0.635,-0.6032 -0.2857,0 -0.5715,0.2857 -0.6667,0.6032 -0.0635,0.4445 0.127,0.635 0.6667,0.635 0.508,0 0.6985,-0.1905 0.635,-0.635 z m -24.7967,2.7305 c 0.6985,-1.1747 -0.762,-2.7622 -2.0955,-2.2542 -0.762,0.3175 -0.7303,0.8255 0.1905,1.8097 0.8255,0.889 1.524,1.0478 1.905,0.4445 z m 12.319,1.0795 c 0,-0.2857 -0.254,-0.5715 -0.6033,-0.635 -0.4445,-0.0952 -0.635,0.0953 -0.635,0.635 0,0.5398 0.1905,0.7303 0.635,0.635 0.3493,-0.0635 0.6033,-0.3492 0.6033,-0.635 z m 127.159,-59.436 c 0.9208,-1.0795 -0.4445,-2.6352 -1.8732,-2.0955 -0.762,0.2858 -0.7303,0.8255 0.1905,1.8098 0.9207,0.9525 1.1112,0.9842 1.6827,0.2857 z m 1.3018,2.6035 c 0.127,-0.2222 0,-0.5397 -0.254,-0.6985 -0.762,-0.4762 -1.016,-0.381 -1.016,0.381 0,0.762 0.8572,0.9525 1.27,0.3175 z m -3.7465,-0.0952 c 0,-0.6668 -0.3493,-0.9208 -0.9208,-0.6985 -0.7302,0.2857 -0.5715,1.1747 0.2223,1.1747 0.381,0 0.6985,-0.2222 0.6985,-0.4762 z m -22.3838,4.3497 c 0,-0.762 -1.0477,-0.635 -1.1747,0.127 -0.0953,0.4763 0.0317,0.6033 0.508,0.5398 0.3492,-0.0953 0.6667,-0.381 0.6667,-0.6668 z m 18.5103,4.6038 c 0.4762,-0.3175 0.4762,-0.4128 0,-0.6985 -0.2858,-0.1905 -0.635,-0.3493 -0.762,-0.3493 -0.4128,-0.0317 -0.6985,0.6668 -0.4763,1.0478 0.2858,0.4445 0.5715,0.4445 1.2383,0 z m 28.9242,0.3175 c 0,-0.508 -0.1905,-0.6985 -0.6032,-0.6033 -0.9208,0.1588 -1.016,1.3335 -0.127,1.3335 0.508,0 0.7302,-0.2222 0.7302,-0.7302 z m -46.3867,1.778 c 0,-0.762 -1.016,-0.635 -1.1748,0.127 -0.0952,0.4762 0.0635,0.635 0.508,0.5397 0.381,-0.0635 0.6668,-0.381 0.6668,-0.6667 z m 33.8772,4.9212 c 0.381,-0.6032 -0.4445,-1.27 -0.9207,-0.762 -0.4128,0.381 -0.1588,1.143 0.381,1.143 0.1587,0 0.4127,-0.1587 0.5397,-0.381 z m 24.511,0.4128 c 0,-0.762 -1.016,-1.2383 -1.905,-0.889 -0.5715,0.2222 -0.762,0.9207 -0.3492,1.3335 0.1587,0.127 0.6985,0.2222 1.2382,0.2222 0.762,0 1.016,-0.1587 1.016,-0.6667 z m -64.6747,0.127 c 0.2857,-0.7938 -0.508,-1.5558 -0.9208,-0.889 -0.3492,0.5397 -0.127,1.4287 0.381,1.4287 0.1588,0 0.4128,-0.254 0.5398,-0.5397 z m 33.8137,3.3655 c 0,-0.2858 -0.2857,-0.5715 -0.635,-0.635 -0.4127,-0.0953 -0.6032,0.0952 -0.6032,0.635 0,0.5397 0.1905,0.7302 0.6032,0.635 0.3493,-0.0635 0.635,-0.3493 0.635,-0.635 z m -48.7045,0 c 0,-0.2858 -0.2857,-0.5715 -0.6032,-0.635 -0.4445,-0.0953 -0.635,0.0952 -0.635,0.635 0,0.5397 0.1905,0.7302 0.635,0.635 0.3175,-0.0635 0.6032,-0.3493 0.6032,-0.635 z m 68.8975,0.762 c 0.0635,-0.2223 -0.1905,-0.4128 -0.6032,-0.4128 -0.7303,0 -0.9525,0.381 -0.4763,0.8255 0.3175,0.3493 0.9208,0.127 1.0795,-0.4127 z m -34.0042,0.7302 c 0.2857,-0.4445 -0.381,-1.2382 -0.7938,-0.9842 -0.5715,0.3492 -0.4762,1.27 0.0953,1.27 0.2857,0 0.6032,-0.127 0.6985,-0.2858 z m -38.4493,0.7938 c 0.2223,-0.6033 -0.5715,-1.0795 -1.2065,-0.6985 -0.254,0.1905 -0.254,0.381 0.0318,0.7302 0.5397,0.6668 0.9207,0.635 1.1747,-0.0317 z m 58.7058,3.4607 c -0.0635,-0.3492 -0.3493,-0.635 -0.635,-0.635 -0.2858,0 -0.5715,0.2858 -0.635,0.635 -0.0953,0.4128 0.0952,0.6033 0.635,0.6033 0.5397,0 0.7302,-0.1905 0.635,-0.6033 z m 35.687,0.7938 c 0,-0.6985 -0.7303,-1.0795 -1.0478,-0.508 -0.1905,0.254 -0.2222,0.6032 -0.127,0.762 0.2858,0.4762 1.1748,0.2857 1.1748,-0.254 z m -27.178,1.0795 c 0.3492,-0.4128 0.254,-0.7303 -0.381,-1.5875 -1.143,-1.5875 -2.0638,-1.3018 -2.0638,0.635 0,1.3017 1.6193,1.9367 2.4448,0.9525 z m 4.9847,1.016 c 0.381,-0.4763 0.381,-0.635 -0.0317,-0.889 -0.2858,-0.1905 -0.762,-0.3175 -1.0478,-0.3175 -0.2857,0 -0.762,0.127 -1.0477,0.3175 -0.4128,0.254 -0.4128,0.4127 -0.0318,0.889 0.254,0.2857 0.7303,0.5397 1.0795,0.5397 0.3493,0 0.8255,-0.254 1.0795,-0.5397 z m 3.6513,0.5715 c 0.254,-0.381 -0.127,-1.4288 -0.508,-1.4288 -0.381,0 -0.7303,1.0478 -0.508,1.4288 0.127,0.1905 0.3492,0.3175 0.508,0.3175 0.1905,0 0.4127,-0.127 0.508,-0.3175 z m -52.3558,0.6667 c 0,-0.762 -0.254,-0.8572 -1.016,-0.381 -0.5715,0.3493 -0.2222,1.0795 0.508,1.0795 0.2858,0 0.508,-0.3175 0.508,-0.6985 z m -14.986,0.3175 c 0.381,-0.5715 -0.4445,-1.2382 -0.9207,-0.762 -0.4128,0.4128 -0.1588,1.143 0.381,1.143 0.1905,0 0.4127,-0.1587 0.5397,-0.381 z m 17.7483,5.5563 c 0.0635,-0.381 -0.127,-0.5715 -0.6033,-0.5715 -0.4127,0 -0.762,0.2222 -0.762,0.4762 0,1.0795 1.143,1.1748 1.3653,0.0953 z m -10.0013,2.6035 c 0,-0.2858 -0.254,-0.5715 -0.6032,-0.635 -0.4445,-0.0953 -0.635,0.0952 -0.635,0.635 0,0.5397 0.1905,0.7302 0.635,0.635 0.3492,-0.0635 0.6032,-0.3493 0.6032,-0.635 z m -11.176,-0.127 c 0.0953,-0.381 -0.127,-0.5715 -0.6032,-0.5715 -0.4128,0 -0.7303,0.1905 -0.7303,0.4762 0,1.0795 1.143,1.1748 1.3335,0.0953 z m -0.4445,5.6197 c 0.5715,-0.4127 0.6033,-0.5715 0.1905,-1.0477 -0.254,-0.3175 -0.7302,-0.5715 -1.0795,-0.5715 -0.3492,0 -0.8255,0.254 -1.1112,0.5715 -0.381,0.4762 -0.3493,0.635 0.2222,1.0477 0.3493,0.2858 0.762,0.508 0.889,0.508 0.127,0 0.508,-0.2222 0.889,-0.508 z m -8.3502,0.7303 c 0.0635,-0.381 -0.127,-0.5715 -0.635,-0.5715 -0.4128,0 -0.7303,0.1905 -0.7303,0.4762 0,1.0795 1.143,1.1748 1.3653,0.0953 z m 1.27,12.446 c 0,-0.2858 -0.254,-0.5398 -0.6033,-0.6033 -0.6032,-0.127 -0.8572,0.635 -0.381,1.1113 0.381,0.3492 0.9843,0.0635 0.9843,-0.508 z M 255.21,168.725 c 0,-0.381 -0.254,-0.6985 -0.5397,-0.6985 -0.2858,0 -0.5398,0.3175 -0.5398,0.6985 0,0.381 0.254,0.6985 0.5398,0.6985 0.2857,0 0.5397,-0.3175 0.5397,-0.6985 z m 6.731,1.0477 c 0.8573,-0.4762 0.8573,-0.9207 0,-1.397 -1.3017,-0.6985 -2.3495,0.3493 -1.3652,1.3335 0.508,0.508 0.508,0.508 1.3652,0.0635 z m 23.0823,4.2228 c 0,-0.7303 -1.0478,-0.635 -1.1748,0.127 -0.0952,0.4762 0.0318,0.635 0.508,0.5397 0.3493,-0.0635 0.6668,-0.3492 0.6668,-0.6667 z M 274.768,183.33 c 0.6985,-0.5398 0.6985,-0.5398 0.0318,-1.0478 -0.8573,-0.635 -1.397,-0.635 -1.9685,0.0318 -0.3493,0.4127 -0.3493,0.635 0,1.0477 0.5715,0.6668 1.0477,0.6668 1.9367,-0.0317 z m 14.9543,6.096 c 0.0635,-0.3493 -0.127,-0.6033 -0.4128,-0.6033 -0.6667,0 -1.0795,0.5715 -0.762,1.0795 0.3175,0.508 1.016,0.2223 1.1748,-0.4762 z m -12.0333,0.9525 c 0.1588,-0.508 -0.7302,-0.8573 -1.3017,-0.508 -0.254,0.1587 -0.3493,0.4762 -0.1905,0.6985 0.2857,0.508 1.3017,0.3492 1.4922,-0.1905 z m -15.1447,2.413 c -0.0635,-0.3175 -0.3493,-0.6033 -0.635,-0.6033 -0.2858,0 -0.5715,0.2858 -0.635,0.6033 -0.0953,0.4445 0.0952,0.635 0.635,0.635 0.5397,0 0.7302,-0.1905 0.635,-0.635 z" style="fill:#ffffff;stroke:none" />
				<path d="m 292.679,202.134 c -0.1503,0.7361 -0.3174,1.4658 -0.4925,2.1926 -10.3974,-2.1202 -21.7126,-3.9982 -33.7864,-5.5976 0.2364,-0.7155 0.4468,-1.4428 0.6307,-2.1805 12.0194,1.5984 23.2874,3.4721 33.6482,5.5855 z m -127.704,-9.5615 c -0.0388,-0.7438 -0.0618,-1.4916 -0.0752,-2.2418 11.6405,0.093 23.0364,0.4135 34.1096,0.9425 0.0521,0.7598 0.1323,1.5118 0.2391,2.2553 -11.1228,-0.5362 -22.5739,-0.8613 -34.2735,-0.956 z" style="fill:#c1ecff;fill-opacity:1;fill-rule:nonzero;stroke:none" />
			</g>
			<g>
				<path d="m 229.435,166.945 c 11.7368,0 21.349,9.1089 22.1546,20.6412 l -11.9277,0 c -0.7641,-4.9469 -5.0778,-8.778 -10.2267,-8.778 -5.1489,0 -9.463,3.8309 -10.2271,8.778 l -11.9277,0 c 0.8056,-11.5323 10.4178,-20.6412 22.1546,-20.6412 z" style="fill:#ed1c24;fill-opacity:1;stroke:none" />
				<path d="m 251.59,190.726 c -0.8057,11.5321 -10.4179,20.6412 -22.1545,20.6412 -11.7366,0 -21.3488,-9.1091 -22.1545,-20.6412 l 11.9277,0 c 0.7644,4.9466 5.0778,8.7778 10.2266,8.7778 5.149,0 9.4626,-3.8308 10.227,-8.7778 l 11.9277,0 z" style="fill:#ffffff;stroke:none" />
			</g>
		</g>
	</g>
</svg>
